<?xml version="1.0" encoding="utf-8"?>
<!-- Generator: Adobe Illustrator 17.1.0, SVG Export Plug-In . SVG Version: 6.00 Build 0)  -->
<!DOCTYPE svg PUBLIC "-//W3C//DTD SVG 1.1//EN" "http://www.w3.org/Graphics/SVG/1.1/DTD/svg11.dtd">
<svg version="1.1" id="logo" xmlns="http://www.w3.org/2000/svg" xmlns:xlink="http://www.w3.org/1999/xlink" x="0px" y="0px"
	 viewBox="0 0 450 450" enable-background="new 0 0 450 450" xml:space="preserve">
<path fill="#FFFFFF" d="M330.1,57.2c-1.7-4.3-3.7-6.6-6.1-7.1c-2.4-0.5-5.2,0.8-8.4,3.8c-3.2,3.1-6.7,7.8-10.3,13.9
	c-3.6,6.2-7.3,13.8-10.6,22.5c-3.3,8.8-6.9,20.4-10.2,33c-3.2,12.5-6.1,26-8,38.5c-1.9,12.3-2.8,23.7-2.3,32.4
	c0.5,8.6,2.4,14.7,6.2,16.9c3.7,2.2,8.8,0.5,14.2-3.5c5.4-4,11.1-10.3,16.3-17.8c5.2-7.3,9.8-15.8,13.4-24.3
	c3.6-8.4,6.3-16.9,8-24.2c1.7-7.3,2.6-15.1,3.1-22.9c0.5-7.9,0.5-15.8,0.2-23.4c-0.3-7.7-1-15-1.9-21.4
	C333,67,331.8,61.4,330.1,57.2"/>
<path fill="#FFFFFF" d="M278.4,260.9c-0.5-0.1-0.9-0.3-1.4-0.4c-0.5-0.1-1-0.1-1.4-0.2c-0.5,0-1,0-1.4,0c-0.5,0.1-1,0.2-1.4,0.3
	c-4.4,1.3-8.2,6.1-11.3,13c-3.2,6.8-5.8,15.5-7.7,24.4c-2,8.8-3.4,17.6-4.3,25.2c-0.9,7.5-1.2,13.8-0.8,18.2c0.3,3.2,1.2,6,2.4,8.2
	c1.2,2.2,2.8,3.9,4.7,5.1c1.9,1.2,4.2,2,6.7,2.3c2.5,0.3,5.2,0.3,8.1-0.1c1-0.2,1.9-0.4,2.9-0.5c1-0.3,2-0.5,3-0.7
	c1-0.3,2.1-0.7,3.1-1c1.1-0.4,2.1-0.8,3.2-1.2c4.1-1.7,8.1-3.9,11.5-6.3c3.4-2.4,6.4-5.2,8.8-8.3c2.4-3.1,4.3-6.4,5.4-10
	c1.1-3.7,1.6-7.5,1.2-11.6c-0.3-3.7-1.4-8.2-3.1-13.3c-1.7-5.2-4-11-6.8-16.6c-2.9-5.9-6.2-11.6-9.8-16.4
	C286.1,266.1,282.3,262.3,278.4,260.9"/>
<path fill="#FFFFFF" d="M160.8,73.3c-7.4-2.8-15.1-4.6-23-5.6c-8.1-1.1-16.2-1.4-24.2-1.1c-8.1,0.3-16,1.1-23.1,2.4
	c-7.3,1.3-13.8,3-19,5.2c-7.7,3.2-11.7,7.2-12.3,12.4c-0.5,5.2,2.3,11.7,7.8,19.8c5.3,7.7,13,16.8,22.4,26.4
	c9,9.2,19.4,18.8,31,27.8c5.8,4.6,12.6,9.5,19.8,14.4c7,4.8,14.5,9.6,22,14.2c7.3,4.4,14.7,8.6,22,12.5c7,3.7,13.8,7,20.3,9.8
	c5.6,2.4,11,4.5,15.9,6c4.9,1.6,9.3,2.7,13.3,3.3c3.9,0.5,7.4,0.6,10.3,0.1c2.8-0.6,5.2-1.7,6.8-3.5c3.5-3.9,3.8-10.6,2-19.3
	c-1.9-8.9-6-19.9-11.3-31.7c-5.6-12.3-12.7-25.5-20.2-37.5c-7.9-12.7-16.3-24-24.1-32c-2.6-2.6-5.3-5.1-8-7.4
	c-2.8-2.3-5.7-4.5-8.7-6.5c-3.1-2-6.2-3.8-9.4-5.4C167.5,76,164.2,74.6,160.8,73.3"/>
<path fill="#FFFFFF" d="M370,233.4c-0.9-0.9-1.9-1.8-2.8-2.6c-1-0.8-2-1.7-3-2.4c-1-0.8-2.2-1.5-3.3-2.1c-1.2-0.6-2.3-1.2-3.6-1.8
	c-3.9-1.7-9-3-14.9-3.6c-6.1-0.7-13-0.5-19.9,0.5c-7.1,1-14.1,3-19.7,5.9c-5.6,2.9-9.6,6.7-10.3,11.1c-0.3,2.1,0.1,4.1,1.2,6.1
	c1,2,2.7,4,4.8,5.9c2.1,1.9,4.6,3.7,7.4,5.4c2.8,1.6,5.8,3.2,9,4.7c3.5,1.6,7.2,3.1,10.9,4.5c3.6,1.3,7.2,2.5,10.7,3.5
	c3.4,1,6.6,1.8,9.6,2.5c2.9,0.7,5.6,1.2,8,1.5c4.3,0.6,8.4,0.6,11.9,0.2c3.5-0.4,6.5-1.3,9-2.5c2.4-1.2,4.3-2.8,5.6-4.8
	c1.2-2,1.9-4.4,1.8-7.2c0-1.9-0.4-3.9-1-6c-0.6-2.1-1.5-4.2-2.5-6.3c-1.1-2.1-2.4-4.3-3.8-6.4C373.5,237.3,371.8,235.3,370,233.4"/>
<path fill="#FFFFFF" d="M240.2,246.8c-4.8-1.8-12.4-1.8-21.7-0.3c-9.6,1.5-21.2,4.5-33.4,8.5c-12.6,4.1-25.9,9.3-38.1,14.9
	c-12.6,5.7-23.9,11.8-32.4,17.5c-9.8,6.6-17.9,13.9-24.2,21.6c-6.4,7.9-10.9,16.1-13.8,24.2c-2.9,8.2-4.2,16.1-4.2,23.2
	c0,7,1.2,13,4,17.3c0.7,1.1,1.5,2,2.3,2.8c0.8,0.8,1.8,1.5,2.7,2c1,0.5,2.1,0.9,3.2,1.2c1.2,0.2,2.4,0.4,3.7,0.4
	c3.9,0.1,8.4-0.9,13.7-2.8c5.1-1.8,10.9-4.5,17.2-7.8c6.1-3.2,12.7-7.1,19.6-11.5c6.7-4.3,13.7-9,20.6-14.1
	c9-6.7,19.9-15.3,30.8-24.5c10.6-8.9,21.3-18.4,30.3-27.4c8.9-8.8,16.2-17.2,20.7-24.3c4.5-7.1,6.2-13.1,4-17.1
	c-0.3-0.4-0.6-0.8-0.8-1.2c-0.4-0.4-0.8-0.7-1.1-1c-0.5-0.3-0.9-0.6-1.4-0.9C241.2,247.3,240.7,247,240.2,246.8"/>
</svg>
