<svg xmlns="http://www.w3.org/2000/svg" viewBox="0 0 450 450" enable-background="new 0 0 450 450"><path fill="#fff" d="M365.7 21.5c-2.2-5.5-4.8-8.5-7.9-9.2-3.1-.6-6.8 1.1-10.8 5-4.1 4-8.6 10.1-13.3 18-4.7 8-9.4 17.8-13.7 29.1-4.3 11.3-8.9 26.4-13.1 42.7-4.2 16.2-7.9 33.6-10.3 49.7-2.4 16-3.6 30.6-2.9 42 .6 11.1 3.1 19 8 21.9 4.8 2.8 11.4.7 18.4-4.5 7-5.2 14.3-13.4 21-23 6.7-9.5 12.6-20.5 17.4-31.5 4.7-10.9 8.2-21.9 10.3-31.3 2.1-9.5 3.4-19.5 4.1-29.6.6-10.2.7-20.4.3-30.3-.4-9.9-1.2-19.4-2.4-27.7-1.3-8.6-2.9-15.9-5.1-21.3m-66.8 263.5l-1.8-.6c-.6-.1-1.2-.2-1.9-.3h-1.9l-1.8.4c-5.7 1.6-10.5 7.9-14.6 16.8-4.1 8.8-7.4 20.1-10 31.5-2.6 11.3-4.5 22.8-5.6 32.6-1.1 9.7-1.6 17.8-1 23.5.4 4.2 1.5 7.7 3.1 10.6 1.5 2.8 3.6 5 6.1 6.6 2.5 1.6 5.4 2.5 8.6 3 3.2.4 6.7.4 10.5-.2l3.8-.7c1.3-.3 2.6-.6 3.9-1 1.3-.4 2.7-.8 4-1.3l4.1-1.5c5.4-2.2 10.4-5 14.9-8.2 4.4-3.1 8.3-6.8 11.4-10.7 3.1-4 5.5-8.3 6.9-12.9 1.5-4.7 2.1-9.7 1.6-15-.4-4.8-1.8-10.6-4-17.2-2.2-6.7-5.2-14.2-8.8-21.5-3.7-7.6-8-15.1-12.6-21.2-4.9-6.1-9.9-10.9-14.9-12.7m-152.1-242.7c-9.6-3.6-19.6-5.9-29.8-7.3-10.4-1.4-21-1.8-31.3-1.5-10.5.4-20.7 1.5-29.9 3.2-9.4 1.7-17.8 3.9-24.6 6.7-10 4.2-15.2 9.3-15.9 16.1-.7 6.7 3 15.2 10 25.5 6.9 10 16.8 21.7 29 34.1 11.6 11.9 25.1 24.3 40 36 7.6 5.9 16.3 12.3 25.6 18.6 9.1 6.2 18.7 12.4 28.5 18.4 9.4 5.7 19 11.2 28.4 16.1 9 4.8 17.9 9.1 26.3 12.7 7.3 3.1 14.2 5.8 20.6 7.8 6.3 2 12 3.5 17.2 4.2 5 .7 9.5.8 13.3.1 3.7-.7 6.7-2.2 8.8-4.5 4.5-5 4.9-13.7 2.6-24.9-2.4-11.4-7.7-25.7-14.7-41-7.3-15.9-16.4-32.9-26.1-48.5-10.3-16.4-21.1-31-31.2-41.4-3.4-3.4-6.8-6.6-10.4-9.6-3.6-3-7.4-5.8-11.2-8.3-4-2.6-8-4.9-12.2-7-4.3-2-8.6-3.8-13-5.5m270.6 207.1l-3.6-3.4c-1.3-1.1-2.6-2.1-3.9-3.1-1.4-1-2.8-1.9-4.2-2.8-1.5-.8-3-1.6-4.6-2.3-5-2.2-11.6-3.8-19.2-4.6-7.9-.9-16.8-.7-25.8.6-9.2 1.3-18.3 3.9-25.5 7.7-7.3 3.8-12.4 8.7-13.3 14.3-.4 2.7.2 5.3 1.5 8 1.3 2.6 3.5 5.2 6.2 7.7 2.7 2.4 6 4.8 9.6 7 3.6 2.1 7.5 4.2 11.6 6.1 4.5 2.1 9.3 4 14.1 5.8 4.7 1.7 9.3 3.2 13.8 4.5 4.3 1.3 8.6 2.4 12.4 3.3 3.8.9 7.3 1.5 10.3 1.9 5.6.7 10.8.8 15.4.2 4.5-.6 8.4-1.6 11.6-3.2 3.1-1.6 5.6-3.6 7.2-6.2 1.6-2.6 2.4-5.7 2.4-9.4-.1-2.5-.5-5.1-1.2-7.8-.8-2.7-1.9-5.4-3.2-8.2-1.4-2.8-3-5.5-5-8.2-2.1-2.8-4.2-5.5-6.6-7.9m-167.9 17.3c-6.2-2.3-16-2.3-28-.4-12.5 1.9-27.4 5.8-43.2 11-16.4 5.4-33.5 12.1-49.2 19.3-16.4 7.4-30.9 15.3-41.9 22.6-12.6 8.5-23.1 17.9-31.2 28-8.3 10.2-14.1 20.9-17.9 31.4-3.8 10.6-5.5 20.8-5.5 30 0 9 1.6 16.9 5.2 22.4.9 1.4 1.9 2.6 3 3.6s2.3 1.9 3.6 2.6c1.3.7 2.7 1.2 4.2 1.6 1.5.3 3.1.5 4.8.5 5 .1 10.9-1.2 17.7-3.6 6.6-2.4 14.1-5.8 22.2-10 7.9-4.2 16.5-9.2 25.3-14.9 8.7-5.5 17.7-11.7 26.6-18.2 11.7-8.6 25.7-19.8 39.8-31.7 13.7-11.6 27.5-23.8 39.1-35.4 11.5-11.4 20.9-22.2 26.7-31.5 5.8-9.2 8-16.9 5.2-22.1l-1.1-1.6-1.5-1.4c-.6-.4-1.2-.8-1.8-1.1-.7-.5-1.4-.8-2.1-1.1"/></svg>