<?xml version="1.0" encoding="utf-8"?>
<!-- Generator: Adobe Illustrator 17.1.0, SVG Export Plug-In . SVG Version: 6.00 Build 0)  -->
<!DOCTYPE svg PUBLIC "-//W3C//DTD SVG 1.1//EN" "http://www.w3.org/Graphics/SVG/1.1/DTD/svg11.dtd">
<svg version="1.1" id="movies" xmlns="http://www.w3.org/2000/svg" xmlns:xlink="http://www.w3.org/1999/xlink" x="0px" y="0px"
	 viewBox="0 0 450 450" enable-background="new 0 0 450 450" xml:space="preserve">
<path fill="#FDFDFE" d="M70.4,76.3h303.8V380H70.4V76.3z M133.7,114.3v101.3h177.2V114.3H133.7z M133.7,240.8v101.3h177.2V240.8
	H133.7z M102.1,101.6c-10.5,0-19,8.5-19,19c0,10.5,8.5,19,19,19c10.5,0,19-8.5,19-19C121,110.1,112.5,101.6,102.1,101.6z
	 M102.1,316.8c-10.5,0-19,8.5-19,19c0,10.5,8.5,19,19,19c10.5,0,19-8.5,19-19C121,325.3,112.5,316.8,102.1,316.8z M102.1,263
	c-10.5,0-19,8.5-19,19c0,10.5,8.5,19,19,19c10.5,0,19-8.5,19-19C121,271.5,112.5,263,102.1,263z M102.1,209.2c-10.5,0-19,8.5-19,19
	c0,10.5,8.5,19,19,19c10.5,0,19-8.5,19-19C121,217.7,112.5,209.2,102.1,209.2z M102.1,155.4c-10.5,0-19,8.5-19,19
	c0,10.5,8.5,19,19,19c10.5,0,19-8.5,19-19C121,163.9,112.5,155.4,102.1,155.4z M342.5,101.6c-10.5,0-19,8.5-19,19
	c0,10.5,8.5,19,19,19s19-8.5,19-19C361.5,110.1,353,101.6,342.5,101.6z M342.5,316.8c-10.5,0-19,8.5-19,19c0,10.5,8.5,19,19,19
	c10.5,0,19-8.5,19-19C361.5,325.3,353,316.8,342.5,316.8z M342.5,263c-10.5,0-19,8.5-19,19c0,10.5,8.5,19,19,19c10.5,0,19-8.5,19-19
	C361.5,271.5,353,263,342.5,263z M342.5,209.2c-10.5,0-19,8.5-19,19s8.5,19,19,19c10.5,0,19-8.5,19-19S353,209.2,342.5,209.2z
	 M342.5,155.4c-10.5,0-19,8.5-19,19c0,10.5,8.5,19,19,19c10.5,0,19-8.5,19-19C361.5,163.9,353,155.4,342.5,155.4z"/>
</svg>
