<?xml version="1.0" encoding="utf-8"?>
<!-- Generator: Adobe Illustrator 17.1.0, SVG Export Plug-In . SVG Version: 6.00 Build 0)  -->
<!DOCTYPE svg PUBLIC "-//W3C//DTD SVG 1.1//EN" "http://www.w3.org/Graphics/SVG/1.1/DTD/svg11.dtd">
<svg version="1.1" id="series" xmlns="http://www.w3.org/2000/svg" xmlns:xlink="http://www.w3.org/1999/xlink" x="0px" y="0px"
	 viewBox="0 0 450 450" enable-background="new 0 0 450 450" xml:space="preserve">
<path fill="#FFFFFF" d="M274.5,70.4c5.3-5.3,16.1-5.3,21.4,0c5.3,5.3,5.3,13.9,0,19.2l-36.3,36.3h104.6c22.4,0,42.7,20.3,42.7,42.7
	v170.8c0,22.4-20.3,42.7-42.7,42.7H90.9c-22.4,0-42.7-20.3-42.7-42.7V168.6c0-22.4,20.3-42.7,42.7-42.7h79l-36.3-36.3
	c-5.3-5.3-5.3-13.9,0-19.2c5.3-5.3,16.1-5.3,21.4,0l55.5,55.5h10.7L274.5,70.4z M90.9,168.6v170.8h205V168.6H90.9z M349.3,165.8
	c-14.9,0-27.1,12.1-27.1,27.1c0,14.9,12.1,27,27.1,27s27-12.1,27-27C376.3,177.9,364.2,165.8,349.3,165.8z M349.3,246.9
	c-14.9,0-27,12.1-27,27.1c0,14.9,12.1,27,27,27s27.1-12.1,27.1-27C376.3,259,364.2,246.9,349.3,246.9z"/>
</svg>
